<svg xmlns="http://www.w3.org/2000/svg" viewBox="0 0 839.47 215.86">
  <title>mb_logo</title>
  <g id="Layer_2" data-name="Layer 2">
    <g id="Layer_1-2" data-name="Layer 1">
      <g>
        <g>
          <path d="M14.53,157H0V60.62H20.85l13.54,69.24,13-69.24h20V157H52.88V96.44L40.28,157H28.59L14.53,96.59Z" style="fill: #231f20"/>
          <path d="M103.15,59.47a23,23,0,0,1,23.06,23.06V135.1a23,23,0,0,1-23.06,23.06,22,22,0,0,1-16.29-6.76,22.34,22.34,0,0,1-6.69-16.3V82.52a23,23,0,0,1,23-23.06Zm7.92,22.75a8.27,8.27,0,0,0-8.3-8.3,8.13,8.13,0,0,0-5.92,2.42,7.94,7.94,0,0,0-2.46,5.88v52.73a7.93,7.93,0,0,0,2.46,5.88,8.13,8.13,0,0,0,5.92,2.42,8.27,8.27,0,0,0,8.3-8.3Z" style="fill: #231f20"/>
          <path d="M161.94,60.7q12.14,0,17.83,6.69,5,5.84,5,16.29v14A22.5,22.5,0,0,1,177,115l10.76,42H172.06l-8.81-36.28h-9.68V157H139V60.7Zm8.69,23.21q0-8.38-8.3-8.38h-8.76v30.82h8.76a7.94,7.94,0,0,0,5.88-2.46A8.13,8.13,0,0,0,170.63,98Z" style="fill: #231f20"/>
          <path d="M214.75,157H200.22V60.62h20.85l13.54,69.24,13-69.24h20V157H253.1V96.44L240.5,157H228.81L214.75,96.59Z" style="fill: #231f20"/>
          <path d="M303.37,59.47a23,23,0,0,1,23.06,23.06V135.1a23,23,0,1,1-46,0V82.52a23,23,0,0,1,23-23.06Zm7.92,22.75a8.27,8.27,0,0,0-8.3-8.3,8.13,8.13,0,0,0-5.92,2.42,7.94,7.94,0,0,0-2.46,5.88v52.73a7.93,7.93,0,0,0,2.46,5.88,8.13,8.13,0,0,0,5.92,2.42,8.27,8.27,0,0,0,8.3-8.3Z" style="fill: #231f20"/>
          <path d="M355.49,60.62l19.28,64.78V60.62H389.3V157h-15.6l-20-61.72V157H339.18V60.62Z" style="fill: #231f20"/>
        </g>
        <path d="M587.76,167.71l-79.72,46a15.88,15.88,0,0,1-15.88,0l-79.72-46A15.88,15.88,0,0,1,404.51,154v-92a15.88,15.88,0,0,1,7.94-13.75l79.72-46a15.88,15.88,0,0,1,15.88,0l79.72,46a15.88,15.88,0,0,1,7.94,13.75v92A15.88,15.88,0,0,1,587.76,167.71Z" style="fill: #231f20"/>
        <g>
          <path d="M511.82,125.8c2.38-11.54,9.18-21.47,18.55-28.64a65.52,65.52,0,0,0-7.46.65,64.11,64.11,0,0,0-12.62,3.27C494,108,482.12,122.47,481,138.77a35.53,35.53,0,0,0,7.43,24.61c16.16,4.46,29.14,6,39.53,5.53C515,158.48,508.38,142.49,511.82,125.8Z" style="fill: #ffec24"/>
          <path d="M468.85,138.34a48.14,48.14,0,0,1,3.17-14,230.83,230.83,0,0,0-25,23.93c8.92,3.9,17.18,7.16,24.85,9.86A44.77,44.77,0,0,1,468.85,138.34Z" style="fill: #ffec24"/>
          <path d="M568.47,136c1.6-11.88-3.36-28.32-18.95-35.4-12.13,4.88-21.25,14.89-23.77,27.12a31.86,31.86,0,0,0,6.43,26.62,37,37,0,0,0,14.27,10.86C562,158.81,567.16,145.78,568.47,136Z" style="fill: #ffec24"/>
          <path d="M497,94.13c11.88-41.31-3.45-47.21-12.44-47.08a16.84,16.84,0,0,0-16.34,14.72C477.28,68.49,486.81,79.2,497,94.13Z" style="fill: #fff"/>
          <path d="M491.58,100.23c-17.45-26-31.06-36.23-41.25-38.75S433.26,64.21,429.54,69c-6.21,8.09-8.55,25.56,11.26,35.06a36.15,36.15,0,0,0,6.94,2.45c13.24,3.28,29.34.64,38.5-1.46,4.48-1,7.3-1.91,7.3-1.91C492.88,102.18,492.22,101.2,491.58,100.23Z" style="fill: #fff"/>
        </g>
        <g>
          <path d="M609.9,157V60.81h21.7a27.65,27.65,0,0,1,15.49,4.52q5.91,3.84,8.44,11.89a33.52,33.52,0,0,1,1.38,10.2q0,9.66-5.14,15.49a14.55,14.55,0,0,1-5.06,3.76,16.85,16.85,0,0,1,8.21,7.29,28.36,28.36,0,0,1,3.3,9.51,38,38,0,0,1,.54,6.67q0,9.13-3.45,15.49a20.69,20.69,0,0,1-7.59,8,20.91,20.91,0,0,1-11,3.37Zm15.65-56.91h6.06q6.75,0,9.05-6.6a18.83,18.83,0,0,0,.84-6.06q0-6-2.91-9a9.18,9.18,0,0,0-7-2.84h-6.06Zm0,42.57h6.06q7.36,0,10.2-7.59a16.69,16.69,0,0,0,1-6q0-8.06-3.07-11.74Q637,114,631.61,114h-6.06Z" style="fill: #231f20"/>
          <path d="M691.89,158.07a20.57,20.57,0,0,1-20.7-20.63V70.34H684v67a7.15,7.15,0,0,0,2.22,5.3,7.32,7.32,0,0,0,5.33,2.18,7.45,7.45,0,0,0,7.48-7.48v-67h13.64v67.1a19.72,19.72,0,0,1-6.09,14.68A20.24,20.24,0,0,1,691.89,158.07Z" style="fill: #231f20"/>
          <path d="M759.29,75.77V88.1L736.7,144.89h22.59v12.2H723.46V144.82L746.11,88l-22.65.07V75.77Z" style="fill: #231f20"/>
          <path d="M801,81V92.53l-21.14,53.15H801V157.1H767.46V145.6l21.2-53.1h-21.2V81Z" style="fill: #231f20"/>
          <path d="M839.47,87V97.6l-19.48,49h19.48V157.1h-30.9V146.51L828.1,97.57H808.57V87Z" style="fill: #231f20"/>
        </g>
      </g>
    </g>
  </g>
</svg>
