<svg xmlns="http://www.w3.org/2000/svg" viewBox="0 0 839.47 215.72">
  <title>mb_logo_light</title>
  <g id="Layer_2" data-name="Layer 2">
    <g id="Layer_1-2" data-name="Layer 1">
      <g>
        <polygon points="34.39 129.74 20.85 60.5 0 60.5 0 156.88 14.53 156.88 14.53 96.47 28.59 156.88 40.28 156.88 52.88 96.32 52.88 156.88 67.39 156.88 67.39 60.5 47.39 60.5 34.39 129.74" style="fill: #fff"/>
        <path d="M103.15,59.35h0A23,23,0,0,0,80.17,82.4V135a22.34,22.34,0,0,0,6.69,16.3A22,22,0,0,0,103.15,158h.12A23,23,0,0,0,126.21,135V82.41s0-.08,0-.12A23,23,0,0,0,103.15,59.35Zm7.92,75.48s0,0,0,.06a8.27,8.27,0,0,1-8.3,8.24,8.13,8.13,0,0,1-5.92-2.42,7.93,7.93,0,0,1-2.46-5.88V82.1a7.94,7.94,0,0,1,2.46-5.88,8.13,8.13,0,0,1,5.92-2.42h.06a8.27,8.27,0,0,1,8.24,8.3Z" style="fill: #fff"/>
        <path d="M184.77,97.56v-14q0-10.45-5-16.29-5.69-6.69-17.83-6.69H139v96.3h14.57V120.6h9.68l8.81,36.28h15.7l-10.76-42A22.5,22.5,0,0,0,184.77,97.56Zm-14.14.32a8.13,8.13,0,0,1-2.42,5.89,7.94,7.94,0,0,1-5.88,2.46h-8.76V75.41h8.76q8.3,0,8.3,8.38Z" style="fill: #fff"/>
        <polygon points="234.61 129.74 221.07 60.5 200.22 60.5 200.22 156.88 214.75 156.88 214.75 96.47 228.81 156.88 240.5 156.88 253.1 96.32 253.1 156.88 267.61 156.88 267.61 60.5 247.61 60.5 234.61 129.74" style="fill: #fff"/>
        <path d="M303.37,59.35h0A23,23,0,0,0,280.43,82.4V135a23,23,0,1,0,46,0V82.41s0-.08,0-.12A23,23,0,0,0,303.37,59.35Zm7.92,75.48s0,0,0,.06a8.27,8.27,0,0,1-8.3,8.24,8.13,8.13,0,0,1-5.92-2.42,7.93,7.93,0,0,1-2.46-5.88V82.1a7.94,7.94,0,0,1,2.46-5.88A8.13,8.13,0,0,1,303,73.8h.06a8.27,8.27,0,0,1,8.24,8.3Z" style="fill: #fff"/>
        <polygon points="374.77 125.28 355.49 60.5 339.18 60.5 339.18 156.88 353.7 156.88 353.7 95.16 373.7 156.88 389.3 156.88 389.3 60.5 374.77 60.5 374.77 125.28" style="fill: #fff"/>
        <path d="M587.77,48.13l-79.72-46a15.88,15.88,0,0,0-15.88,0l-79.72,46a15.88,15.88,0,0,0-7.94,13.75v92a15.88,15.88,0,0,0,7.93,13.71l79.72,46a15.88,15.88,0,0,0,15.88,0l79.72-46a15.88,15.88,0,0,0,8-13.71v-92A15.88,15.88,0,0,0,587.77,48.13Zm-103.21-1.2c9-.13,24.32,5.77,12.44,47.08-10.19-14.93-19.72-25.64-28.78-32.36A16.84,16.84,0,0,1,484.56,46.93Zm-55,22c3.72-4.79,10.6-10,20.79-7.52s23.8,12.75,41.25,38.75c.64,1,1.3,2,2,2.91,0,0-2.82.91-7.3,1.91-9.16,2.1-25.26,4.74-38.5,1.46a36.15,36.15,0,0,1-6.94-2.45C421,94.44,423.33,77,429.54,68.88ZM471.87,158c-7.67-2.7-15.93-6-24.85-9.86a230.83,230.83,0,0,1,25-23.93,48.14,48.14,0,0,0-3.17,14A44.77,44.77,0,0,0,471.87,158Zm16.56,5.25A35.53,35.53,0,0,1,481,138.65c1.12-16.3,13-30.77,29.29-37.69a64.11,64.11,0,0,1,12.62-3.27,65.52,65.52,0,0,1,7.46-.65c-9.37,7.17-16.17,17.1-18.55,28.64-3.44,16.69,3.18,32.68,16.14,43.11C517.57,169.26,504.59,167.72,488.43,163.26Zm80-27.38c-1.31,9.78-6.47,22.81-22,29.2a37,37,0,0,1-14.27-10.86,31.86,31.86,0,0,1-6.43-26.62c2.52-12.23,11.64-22.24,23.77-27.12C565.11,107.56,570.07,124,568.47,135.88Z" style="fill: #ffec24"/>
        <g>
          <path d="M497.53,52.29c-3.78-4.95-9.13-5.92-13-5.87a17.45,17.45,0,0,0-16.83,15.16l0,.29.24.17c9.08,6.73,18.45,17.28,28.67,32.24l.6.88.29-1C503.29,73.94,503.31,59.86,497.53,52.29Z" style="fill: #fff"/>
          <path d="M492,99.83C476.68,77,462.7,63.9,450.45,60.87c-11.18-2.76-18.15,3.64-21.31,7.7a22.85,22.85,0,0,0-3.94,18.77c1.19,5,4.82,12,15.38,17a36.73,36.73,0,0,0,7,2.48,59.64,59.64,0,0,0,14.21,1.55,114,114,0,0,0,24.52-3c4.45-1,7.31-1.91,7.34-1.92l.64-.21-.38-.55C493.29,101.78,492.64,100.8,492,99.83Z" style="fill: #fff"/>
        </g>
        <path d="M654.92,113.84a16.85,16.85,0,0,0-8.21-7.29,14.55,14.55,0,0,0,5.06-3.76q5.14-5.83,5.14-15.49a33.52,33.52,0,0,0-1.38-10.2q-2.53-8-8.44-11.89a27.65,27.65,0,0,0-15.49-4.52H609.9v96.19h26.82a20.91,20.91,0,0,0,11-3.37,20.69,20.69,0,0,0,7.59-8q3.45-6.36,3.45-15.49a38,38,0,0,0-.54-6.67A28.36,28.36,0,0,0,654.92,113.84ZM631.59,75.47a9.18,9.18,0,0,1,7,2.84q2.91,3,2.91,9a18.83,18.83,0,0,1-.84,6.06q-2.3,6.6-9,6.6h-6.06l0-24.5Zm10.22,59.48q-2.84,7.59-10.2,7.59h-6.06V113.88h6.06q5.39,0,8.13,3.33,3.07,3.68,3.07,11.74A16.69,16.69,0,0,1,641.81,134.95Z" style="fill: #fff"/>
        <path d="M699,137.22s0,0,0,.06a7.45,7.45,0,0,1-7.48,7.42,7.32,7.32,0,0,1-5.33-2.18,7.15,7.15,0,0,1-2.22-5.3v-67H671.19v67.1q0,.1,0,.19a20.57,20.57,0,0,0,20.7,20.44,20.24,20.24,0,0,0,14.69-6,19.72,19.72,0,0,0,6.09-14.68V70.22H699Z" style="fill: #fff"/>
        <polygon points="759.29 87.98 759.29 75.65 723.46 75.65 723.46 87.95 746.11 87.88 723.46 144.7 723.46 156.97 759.29 156.97 759.29 144.77 736.7 144.77 759.29 87.98" style="fill: #fff"/>
        <polygon points="767.46 92.38 788.66 92.38 767.46 145.48 767.46 156.98 801 156.98 801 145.56 779.86 145.56 801 92.41 801 80.88 767.46 80.88 767.46 92.38" style="fill: #fff"/>
        <polygon points="839.47 86.88 808.57 86.88 808.57 97.45 828.1 97.45 808.57 146.39 808.57 156.98 839.47 156.98 839.47 146.48 819.99 146.48 839.47 97.48 839.47 86.88" style="fill: #fff"/>
      </g>
    </g>
  </g>
</svg>
